<mxfile host="app.diagrams.net" modified="2023-04-07T05:45:34.109Z" agent="Mozilla/5.0 (Windows NT 10.0; Win64; x64) AppleWebKit/537.36 (KHTML, like Gecko) Chrome/112.0.0.0 Safari/537.36" etag="q464JgeY3-uLk8Aag0CG" version="21.1.5" type="device">
  <diagram name="Page-1" id="Nxod84x_dbj2L5SUH8D0">
    <mxGraphModel dx="1782" dy="1516" grid="1" gridSize="10" guides="1" tooltips="1" connect="1" arrows="1" fold="1" page="1" pageScale="1" pageWidth="850" pageHeight="1100" math="0" shadow="0">
      <root>
        <mxCell id="0" />
        <mxCell id="1" parent="0" />
        <mxCell id="EZILzGD_QzCtrCNXpoje-5" style="edgeStyle=orthogonalEdgeStyle;rounded=0;orthogonalLoop=1;jettySize=auto;html=1;exitX=0.5;exitY=1;exitDx=0;exitDy=0;" edge="1" parent="1" source="EZILzGD_QzCtrCNXpoje-1" target="EZILzGD_QzCtrCNXpoje-2">
          <mxGeometry relative="1" as="geometry" />
        </mxCell>
        <mxCell id="EZILzGD_QzCtrCNXpoje-1" value="Customer membuat ID Transaksi" style="rounded=0;whiteSpace=wrap;html=1;" vertex="1" parent="1">
          <mxGeometry x="160" y="40" width="120" height="60" as="geometry" />
        </mxCell>
        <mxCell id="EZILzGD_QzCtrCNXpoje-6" value="" style="edgeStyle=orthogonalEdgeStyle;rounded=0;orthogonalLoop=1;jettySize=auto;html=1;" edge="1" parent="1" source="EZILzGD_QzCtrCNXpoje-2" target="EZILzGD_QzCtrCNXpoje-4">
          <mxGeometry relative="1" as="geometry" />
        </mxCell>
        <mxCell id="EZILzGD_QzCtrCNXpoje-2" value="Customer memasukkan:&lt;br&gt;nama item, jumlah item, harga per item" style="rounded=0;whiteSpace=wrap;html=1;" vertex="1" parent="1">
          <mxGeometry x="150" y="150" width="140" height="70" as="geometry" />
        </mxCell>
        <mxCell id="EZILzGD_QzCtrCNXpoje-9" style="edgeStyle=orthogonalEdgeStyle;rounded=0;orthogonalLoop=1;jettySize=auto;html=1;exitX=1;exitY=0.5;exitDx=0;exitDy=0;entryX=0;entryY=0.5;entryDx=0;entryDy=0;" edge="1" parent="1" source="EZILzGD_QzCtrCNXpoje-4" target="EZILzGD_QzCtrCNXpoje-8">
          <mxGeometry relative="1" as="geometry" />
        </mxCell>
        <mxCell id="EZILzGD_QzCtrCNXpoje-51" style="edgeStyle=orthogonalEdgeStyle;rounded=0;orthogonalLoop=1;jettySize=auto;html=1;" edge="1" parent="1" source="EZILzGD_QzCtrCNXpoje-4" target="EZILzGD_QzCtrCNXpoje-11">
          <mxGeometry relative="1" as="geometry" />
        </mxCell>
        <mxCell id="EZILzGD_QzCtrCNXpoje-4" value="Apakah Customer&amp;nbsp;&lt;br&gt;melakukan&amp;nbsp;&lt;br&gt;kesalahan dalam &lt;br&gt;memasukkan data ?" style="rhombus;whiteSpace=wrap;html=1;" vertex="1" parent="1">
          <mxGeometry x="135" y="260" width="170" height="140" as="geometry" />
        </mxCell>
        <mxCell id="EZILzGD_QzCtrCNXpoje-57" style="edgeStyle=orthogonalEdgeStyle;rounded=0;orthogonalLoop=1;jettySize=auto;html=1;entryX=0.5;entryY=0;entryDx=0;entryDy=0;" edge="1" parent="1" source="EZILzGD_QzCtrCNXpoje-8" target="EZILzGD_QzCtrCNXpoje-16">
          <mxGeometry relative="1" as="geometry" />
        </mxCell>
        <mxCell id="EZILzGD_QzCtrCNXpoje-58" style="edgeStyle=orthogonalEdgeStyle;rounded=0;orthogonalLoop=1;jettySize=auto;html=1;entryX=0.5;entryY=0;entryDx=0;entryDy=0;" edge="1" parent="1" source="EZILzGD_QzCtrCNXpoje-8" target="EZILzGD_QzCtrCNXpoje-23">
          <mxGeometry relative="1" as="geometry" />
        </mxCell>
        <mxCell id="EZILzGD_QzCtrCNXpoje-8" value="Apakah Customer &lt;br&gt;ingin menghapus&lt;br&gt;&amp;nbsp;item yang sudah &lt;br&gt;diinput ?" style="rhombus;whiteSpace=wrap;html=1;" vertex="1" parent="1">
          <mxGeometry x="500" y="130" width="150" height="140" as="geometry" />
        </mxCell>
        <mxCell id="EZILzGD_QzCtrCNXpoje-10" value="Iya" style="text;html=1;align=center;verticalAlign=middle;resizable=0;points=[];autosize=1;strokeColor=none;fillColor=none;" vertex="1" parent="1">
          <mxGeometry x="318" y="306" width="40" height="30" as="geometry" />
        </mxCell>
        <mxCell id="EZILzGD_QzCtrCNXpoje-37" style="edgeStyle=orthogonalEdgeStyle;rounded=0;orthogonalLoop=1;jettySize=auto;html=1;exitX=0.5;exitY=1;exitDx=0;exitDy=0;entryX=0.5;entryY=0;entryDx=0;entryDy=0;" edge="1" parent="1" source="EZILzGD_QzCtrCNXpoje-11" target="EZILzGD_QzCtrCNXpoje-33">
          <mxGeometry relative="1" as="geometry" />
        </mxCell>
        <mxCell id="EZILzGD_QzCtrCNXpoje-52" style="edgeStyle=orthogonalEdgeStyle;rounded=0;orthogonalLoop=1;jettySize=auto;html=1;entryX=1;entryY=0.5;entryDx=0;entryDy=0;" edge="1" parent="1" source="EZILzGD_QzCtrCNXpoje-11" target="EZILzGD_QzCtrCNXpoje-30">
          <mxGeometry relative="1" as="geometry" />
        </mxCell>
        <mxCell id="EZILzGD_QzCtrCNXpoje-11" value="Apakah Customer &lt;br&gt;ingin meakukan &lt;br&gt;pengecekan ulang &lt;br&gt;terhadap input &lt;br&gt;sebelumnya ?" style="rhombus;whiteSpace=wrap;html=1;" vertex="1" parent="1">
          <mxGeometry x="135" y="480" width="170" height="140" as="geometry" />
        </mxCell>
        <mxCell id="EZILzGD_QzCtrCNXpoje-13" value="Tidak" style="text;html=1;align=center;verticalAlign=middle;resizable=0;points=[];autosize=1;strokeColor=none;fillColor=none;" vertex="1" parent="1">
          <mxGeometry x="215" y="420" width="50" height="30" as="geometry" />
        </mxCell>
        <mxCell id="EZILzGD_QzCtrCNXpoje-61" style="edgeStyle=orthogonalEdgeStyle;rounded=0;orthogonalLoop=1;jettySize=auto;html=1;entryX=0.5;entryY=0;entryDx=0;entryDy=0;" edge="1" parent="1" source="EZILzGD_QzCtrCNXpoje-16" target="EZILzGD_QzCtrCNXpoje-11">
          <mxGeometry relative="1" as="geometry">
            <Array as="points">
              <mxPoint x="380" y="480" />
              <mxPoint x="380" y="480" />
            </Array>
          </mxGeometry>
        </mxCell>
        <mxCell id="EZILzGD_QzCtrCNXpoje-16" value="&lt;b&gt;Customer bisa melakukan&lt;/b&gt;" style="swimlane;fontStyle=0;childLayout=stackLayout;horizontal=1;startSize=30;horizontalStack=0;resizeParent=1;resizeParentMax=0;resizeLast=0;collapsible=1;marginBottom=0;whiteSpace=wrap;html=1;" vertex="1" parent="1">
          <mxGeometry x="500" y="380" width="150" height="150" as="geometry" />
        </mxCell>
        <mxCell id="EZILzGD_QzCtrCNXpoje-17" value="Delete item: menghapus salah satu item berdasarkan nama item" style="text;align=left;verticalAlign=middle;spacingLeft=4;spacingRight=4;overflow=hidden;points=[[0,0.5],[1,0.5]];portConstraint=eastwest;rotatable=0;whiteSpace=wrap;html=1;strokeColor=default;" vertex="1" parent="EZILzGD_QzCtrCNXpoje-16">
          <mxGeometry y="30" width="150" height="60" as="geometry" />
        </mxCell>
        <mxCell id="EZILzGD_QzCtrCNXpoje-20" value="Reset transaksi: menghapus semua transakasi" style="text;strokeColor=none;fillColor=none;align=left;verticalAlign=middle;spacingLeft=4;spacingRight=4;overflow=hidden;points=[[0,0.5],[1,0.5]];portConstraint=eastwest;rotatable=0;whiteSpace=wrap;html=1;" vertex="1" parent="EZILzGD_QzCtrCNXpoje-16">
          <mxGeometry y="90" width="150" height="60" as="geometry" />
        </mxCell>
        <mxCell id="EZILzGD_QzCtrCNXpoje-60" style="edgeStyle=orthogonalEdgeStyle;rounded=0;orthogonalLoop=1;jettySize=auto;html=1;entryX=0.5;entryY=0;entryDx=0;entryDy=0;" edge="1" parent="1" source="EZILzGD_QzCtrCNXpoje-23" target="EZILzGD_QzCtrCNXpoje-11">
          <mxGeometry relative="1" as="geometry">
            <Array as="points">
              <mxPoint x="785" y="660" />
              <mxPoint x="380" y="660" />
              <mxPoint x="380" y="480" />
            </Array>
          </mxGeometry>
        </mxCell>
        <mxCell id="EZILzGD_QzCtrCNXpoje-23" value="&lt;b&gt;Customer bisa melakukan&lt;/b&gt;" style="swimlane;fontStyle=0;childLayout=stackLayout;horizontal=1;startSize=30;horizontalStack=0;resizeParent=1;resizeParentMax=0;resizeLast=0;collapsible=1;marginBottom=0;whiteSpace=wrap;html=1;" vertex="1" parent="1">
          <mxGeometry x="710" y="380" width="150" height="210" as="geometry" />
        </mxCell>
        <mxCell id="EZILzGD_QzCtrCNXpoje-24" value="Update nama item: mengupdate nama item berdasarkan nama item lama" style="text;align=left;verticalAlign=middle;spacingLeft=4;spacingRight=4;overflow=hidden;points=[[0,0.5],[1,0.5]];portConstraint=eastwest;rotatable=0;whiteSpace=wrap;html=1;strokeColor=default;" vertex="1" parent="EZILzGD_QzCtrCNXpoje-23">
          <mxGeometry y="30" width="150" height="60" as="geometry" />
        </mxCell>
        <mxCell id="EZILzGD_QzCtrCNXpoje-25" value="Update jumlah item: mengupdate jumlah item berdasarkan nama item" style="text;strokeColor=default;fillColor=none;align=left;verticalAlign=middle;spacingLeft=4;spacingRight=4;overflow=hidden;points=[[0,0.5],[1,0.5]];portConstraint=eastwest;rotatable=0;whiteSpace=wrap;html=1;" vertex="1" parent="EZILzGD_QzCtrCNXpoje-23">
          <mxGeometry y="90" width="150" height="60" as="geometry" />
        </mxCell>
        <mxCell id="EZILzGD_QzCtrCNXpoje-27" value="Update harga item: mengupdate harga item berdasarkan nama item" style="text;strokeColor=none;fillColor=none;align=left;verticalAlign=middle;spacingLeft=4;spacingRight=4;overflow=hidden;points=[[0,0.5],[1,0.5]];portConstraint=eastwest;rotatable=0;whiteSpace=wrap;html=1;" vertex="1" parent="EZILzGD_QzCtrCNXpoje-23">
          <mxGeometry y="150" width="150" height="60" as="geometry" />
        </mxCell>
        <mxCell id="EZILzGD_QzCtrCNXpoje-26" value="Iya" style="text;html=1;align=center;verticalAlign=middle;resizable=0;points=[];autosize=1;strokeColor=none;fillColor=none;" vertex="1" parent="1">
          <mxGeometry x="570" y="290" width="40" height="30" as="geometry" />
        </mxCell>
        <mxCell id="EZILzGD_QzCtrCNXpoje-29" value="Tidak" style="text;html=1;align=center;verticalAlign=middle;resizable=0;points=[];autosize=1;strokeColor=none;fillColor=none;" vertex="1" parent="1">
          <mxGeometry x="651" y="176" width="50" height="30" as="geometry" />
        </mxCell>
        <mxCell id="EZILzGD_QzCtrCNXpoje-53" style="edgeStyle=orthogonalEdgeStyle;rounded=0;orthogonalLoop=1;jettySize=auto;html=1;entryX=0;entryY=0.5;entryDx=0;entryDy=0;" edge="1" parent="1" source="EZILzGD_QzCtrCNXpoje-30" target="EZILzGD_QzCtrCNXpoje-4">
          <mxGeometry relative="1" as="geometry">
            <Array as="points">
              <mxPoint x="-10" y="330" />
            </Array>
          </mxGeometry>
        </mxCell>
        <mxCell id="EZILzGD_QzCtrCNXpoje-30" value="Customer melakukan pengecekan transaksi" style="rounded=0;whiteSpace=wrap;html=1;" vertex="1" parent="1">
          <mxGeometry x="-70" y="520" width="120" height="60" as="geometry" />
        </mxCell>
        <mxCell id="EZILzGD_QzCtrCNXpoje-40" style="edgeStyle=orthogonalEdgeStyle;rounded=0;orthogonalLoop=1;jettySize=auto;html=1;exitX=0.5;exitY=1;exitDx=0;exitDy=0;entryX=0.5;entryY=0;entryDx=0;entryDy=0;" edge="1" parent="1" source="EZILzGD_QzCtrCNXpoje-33" target="EZILzGD_QzCtrCNXpoje-39">
          <mxGeometry relative="1" as="geometry" />
        </mxCell>
        <mxCell id="EZILzGD_QzCtrCNXpoje-33" value="Customer menghitung total belanja yang sudah dibeli" style="rounded=0;whiteSpace=wrap;html=1;" vertex="1" parent="1">
          <mxGeometry x="150" y="710" width="140" height="70" as="geometry" />
        </mxCell>
        <mxCell id="EZILzGD_QzCtrCNXpoje-38" value="Tidak" style="text;html=1;align=center;verticalAlign=middle;resizable=0;points=[];autosize=1;strokeColor=none;fillColor=none;" vertex="1" parent="1">
          <mxGeometry x="215" y="645" width="50" height="30" as="geometry" />
        </mxCell>
        <mxCell id="EZILzGD_QzCtrCNXpoje-39" value="Data transaksi dimasukkan ke dalam sqlite database pada tabel transaction" style="rounded=0;whiteSpace=wrap;html=1;" vertex="1" parent="1">
          <mxGeometry x="150" y="860" width="140" height="80" as="geometry" />
        </mxCell>
        <mxCell id="EZILzGD_QzCtrCNXpoje-54" value="Iya" style="text;html=1;align=center;verticalAlign=middle;resizable=0;points=[];autosize=1;strokeColor=none;fillColor=none;" vertex="1" parent="1">
          <mxGeometry x="82" y="523" width="40" height="30" as="geometry" />
        </mxCell>
      </root>
    </mxGraphModel>
  </diagram>
</mxfile>
